<svg width="200" height="200" viewBox="0 0 200 200" xmlns="http://www.w3.org/2000/svg">
  <!-- Head group -->
  <circle cx="100" cy="50" r="20" fill="#FF6347" />

  <!-- Glycerol backbone -->
  <circle cx="100" cy="80" r="10" fill="#4682B4" />
  <circle cx="100" cy="110" r="10" fill="#4682B4" />

  <!-- Palmitoyl chain -->
  <circle cx="70" cy="140" r="5" fill="#8B4513" />
  <circle cx="55" cy="160" r="5" fill="#8B4513" />
  <circle cx="40" cy="180" r="5" fill="#8B4513" />

  <!-- Oleoyl chain -->
  <circle cx="130" cy="140" r="5" fill="#8B4513" />
  <circle cx="145" cy="160" r="5" fill="#8B4513" />
  <circle cx="160" cy="180" r="5" fill="#8B4513" />

  <!-- Bonds -->
  <line x1="100" y1="50" x2="100" y2="80" stroke="#000" stroke-width="2" />
  <line x1="100" y1="80" x2="100" y2="110" stroke="#000" stroke-width="2" />
  <line x1="100" y1="110" x2="70" y2="140" stroke="#000" stroke-width="2" />
  <line x1="70" y1="140" x2="55" y2="160" stroke="#000" stroke-width="2" />
  <line x1="55" y1="160" x2="40" y2="180" stroke="#000" stroke-width="2" />
  <line x1="100" y1="110" x2="130" y2="140" stroke="#000" stroke-width="2" />
  <line x1="130" y1="140" x2="145" y2="160" stroke="#000" stroke-width="2" />
  <line x1="145" y1="160" x2="160" y2="180" stroke="#000" stroke-width="2" />
</svg>
